# xmcd CD database file
#
# Track frame offsets:
#	150
#	18120
#	35194
#	52849
#	70797
#	86610
#	107229
#	129709
#	153400
#	173291
#	193736
#	215829
#	244092
#
# Disc length: 3594 seconds
#
# Revision: 36
# Processed by: cddbd v1.5.2PL0 Copyright (c) Steve Scherf et al.
# Submitted via: CDex 2.09
#
DISCID=ae0e080d
DTITLE=Ray Charles et al. - Genius Loves Company
DYEAR=2004
DGENRE=R&B
TTITLE0=Ray Charles and Norah Jones - Here We Go Again
TTITLE1=Ray Charles and James Taylor - Sweet Potato Pie
TTITLE2=Ray Charles and Diana Krall - You Don't Know Me
TTITLE3=Ray Charles and Elton John - Sorry Seems To Be The Hardest Word
TTITLE4=Ray Charles and Natalie Cole - Fever
TTITLE5=Ray Charles and Bonnie Raitt - Don't I Ever Cross Your Mind
TTITLE6=Ray Charles and Willie Nelson - It Was A Very Good Year
TTITLE7=Ray Charles and Michael McDonald - Hey Girl
TTITLE8=Ray Charles and B.B. King - Sinner's Prayer
TTITLE9=Ray Charles and Gladys Knight - Heaven Help Us All
TTITLE10=Ray Charles and Johnny Mathis - Over The Rainbow
TTITLE11=Ray Charles and Van Morrison - Crazy Love
TTITLE12=DATA
EXTD=YEAR: 2004
EXTT0=
EXTT1=
EXTT2=
EXTT3=
EXTT4=
EXTT5=
EXTT6=
EXTT7=
EXTT8=
EXTT9=
EXTT10=
EXTT11=
EXTT12=
PLAYORDER=
